<svg xmlns="http://www.w3.org/2000/svg" xmlns:svg="http://www.w3.org/2000/svg" xmlns:xlink="http://www.w3.org/1999/xlink" id="svg8" width="225.108" height="311.967" version="1.1" viewBox="0 0 59.56 82.541" style="shape-rendering:crispEdges"><metadata id="metadata5"/><g id="layer1" transform="translate(-20.220106,-205.72931)"><g id="g861"><g style="fill:#b99000;fill-opacity:1" id="g4679" transform="matrix(0.3690624,0,0,0.3690624,18.105033,189.75998)"><g id="g4660" transform="translate(-190.2959,-105.83873)" style="fill:#b99000;fill-opacity:1"><g aria-label="I" style="font-style:normal;font-variant:normal;font-weight:400;font-stretch:normal;font-size:126.0933609px;line-height:78.80922699px;font-family:FreeSerif;-inkscape-font-specification:'FreeSerif, Normal';font-variant-ligatures:normal;font-variant-caps:normal;font-variant-numeric:normal;font-feature-settings:normal;text-align:start;letter-spacing:0;word-spacing:0;writing-mode:lr-tb;text-anchor:start;fill:#b99000;fill-opacity:1;stroke:none;stroke-width:3.15236878" id="g4645" transform="matrix(1.3622465,0,0,2.1229642,451.52976,107.20772)"><path d="m -134.78318,111.1771 0.22953,-56.677869 12.63199,0.69242 V 111.1771 c 0,4.62343 0.75656,7.64967 2.26968,9.07873 1.51312,1.34499 4.87561,2.10155 10.08747,2.26968 v 2.39577 h -37.44973 v -2.39577 c 5.29592,-0.16813 8.65841,-0.92469 10.08747,-2.26968 1.42906,-1.345 2.14359,-4.37124 2.14359,-9.07873 z" style="font-style:normal;font-variant:normal;font-weight:400;font-stretch:normal;font-size:126.0933609px;font-family:FreeSerif;-inkscape-font-specification:'FreeSerif, Normal';font-variant-ligatures:normal;font-variant-caps:normal;font-variant-numeric:normal;font-feature-settings:normal;text-align:start;writing-mode:lr-tb;text-anchor:start;fill:#b99000;fill-opacity:1;stroke-width:3.15236878" id="path4643"/></g><g id="text4649" aria-label="P" transform="matrix(2.7694261,0,0,2.7694261,-385.51233,-279.82443)" style="font-style:normal;font-variant:normal;font-weight:400;font-stretch:normal;font-size:60.91687012px;line-height:38.07233047px;font-family:FreeSerif;-inkscape-font-specification:'FreeSerif, Normal';font-variant-ligatures:normal;font-variant-caps:normal;font-variant-numeric:normal;font-feature-settings:normal;text-align:start;letter-spacing:0;word-spacing:0;writing-mode:lr-tb;text-anchor:start;fill:#b99000;fill-opacity:1;stroke:none;stroke-width:1.52289295"><path id="path4651" style="font-style:normal;font-variant:normal;font-weight:400;font-stretch:normal;font-size:60.91687012px;font-family:FreeSerif;-inkscape-font-specification:'FreeSerif, Normal';font-variant-ligatures:normal;font-variant-caps:normal;font-variant-numeric:normal;font-feature-settings:normal;text-align:start;writing-mode:lr-tb;text-anchor:start;fill:#b99000;fill-opacity:1;stroke-width:1.52289295" d="m 262.98386,165.90756 c 0,1.05589 -0.12183,2.07117 -0.3655,3.04584 -0.24367,0.97467 -0.731,2.01026 -1.46201,3.10676 -0.69039,1.09651 -1.62444,2.05087 -2.80217,2.86309 -1.17773,0.77162 -2.78187,1.4214 -4.81244,1.94934 -2.03056,0.52795 -4.38601,0.79192 -7.06635,0.79192 -1.21834,0 -2.61943,-0.0609 -4.20327,-0.18275 v 11.08687 c -6.21352,-0.67008 0,0 -6.21352,-0.67008 v -26.37701 c 0,-2.19301 -0.28428,-3.59409 -0.85283,-4.20326 -0.56856,-0.60917 -1.98995,-1.03559 -4.26418,-1.27926 v -1.15742 h 16.08205 c 1.82751,0 3.5941,0.18275 5.29977,0.54826 1.70567,0.32489 3.39104,0.87314 5.0561,1.64475 1.70567,0.77161 3.06615,1.90873 4.08143,3.41135 1.01528,1.50261 1.52292,3.30981 1.52292,5.4216 z m -20.71174,-6.70086 v 15.83839 c 1.42139,0.12183 2.57881,0.18275 3.47226,0.18275 7.06636,0 10.59954,-2.98493 10.59954,-8.95478 0,-3.12707 -0.97467,-5.4216 -2.92401,-6.88361 -1.94934,-1.50261 -4.97488,-2.25392 -9.07661,-2.25392 -0.81223,0 -1.36048,0.14214 -1.64476,0.42642 -0.28428,0.28427 -0.42642,0.83252 -0.42642,1.64475 z"/></g></g><g id="g4664" aria-label="I" transform="matrix(0.96325374,0.96325376,-1.5011625,1.5011624,330.83787,408.96891)" style="font-style:normal;font-variant:normal;font-weight:400;font-stretch:normal;font-size:126.0933609px;line-height:78.80922699px;font-family:FreeSerif;-inkscape-font-specification:'FreeSerif, Normal';font-variant-ligatures:normal;font-variant-caps:normal;font-variant-numeric:normal;font-feature-settings:normal;text-align:start;letter-spacing:0;word-spacing:0;writing-mode:lr-tb;text-anchor:start;fill:#b99000;fill-opacity:1;stroke:none;stroke-width:3.15236878"><path id="path4662" style="font-style:normal;font-variant:normal;font-weight:400;font-stretch:normal;font-size:126.0933609px;font-family:FreeSerif;-inkscape-font-specification:'FreeSerif, Normal';font-variant-ligatures:normal;font-variant-caps:normal;font-variant-numeric:normal;font-feature-settings:normal;text-align:start;writing-mode:lr-tb;text-anchor:start;fill:#b99000;fill-opacity:1;stroke-width:3.15236878" d="M -248.98146,35.213209 V -20.77224 q 0,-6.935135 -2.14359,-8.826535 -2.01749,-2.017494 -10.08747,-2.521867 v -2.395774 h 37.44973 v 2.395774 q -7.94388,0.37828 -10.21356,2.395774 -2.14359,2.017493 -2.14359,8.952628 v 55.985449 q 0,6.93514 2.26968,9.07873 2.26968,2.01749 10.08747,2.26968 v 2.39577 h -37.44973 v -2.39577 q 7.94388,-0.25219 10.08747,-2.26968 2.14359,-2.0175 2.14359,-9.07873 z"/></g><g aria-label="I" style="font-style:normal;font-variant:normal;font-weight:400;font-stretch:normal;font-size:126.0933609px;line-height:78.80922699px;font-family:FreeSerif;-inkscape-font-specification:'FreeSerif, Normal';font-variant-ligatures:normal;font-variant-caps:normal;font-variant-numeric:normal;font-feature-settings:normal;text-align:start;letter-spacing:0;word-spacing:0;writing-mode:lr-tb;text-anchor:start;fill:#b99000;fill-opacity:1;stroke:none;stroke-width:3.15236878" id="g4668" transform="matrix(-0.96325374,0.96325376,1.5011625,1.5011624,-157.99465,408.96891)"><path d="M -248.98146,35.213209 V -20.77224 q 0,-6.935135 -2.14359,-8.826535 -2.01749,-2.017494 -10.08747,-2.521867 v -2.395774 h 37.44973 v 2.395774 q -7.94388,0.37828 -10.21356,2.395774 -2.14359,2.017493 -2.14359,8.952628 v 55.985449 q 0,6.93514 2.26968,9.07873 2.26968,2.01749 10.08747,2.26968 v 2.39577 h -37.44973 v -2.39577 q 7.94388,-0.25219 10.08747,-2.26968 2.14359,-2.0175 2.14359,-9.07873 z" style="font-style:normal;font-variant:normal;font-weight:400;font-stretch:normal;font-size:126.0933609px;font-family:FreeSerif;-inkscape-font-specification:'FreeSerif, Normal';font-variant-ligatures:normal;font-variant-caps:normal;font-variant-numeric:normal;font-feature-settings:normal;text-align:start;writing-mode:lr-tb;text-anchor:start;fill:#b99000;fill-opacity:1;stroke-width:3.15236878" id="path4666"/></g></g><g id="text4733" aria-label="Ὢ" transform="matrix(0.15436455,0,0,0.15436455,43.087732,182.45127)" style="font-style:normal;font-weight:400;font-size:78.41954041px;line-height:49.01221085px;font-family:sans-serif;letter-spacing:0;word-spacing:0;fill:#b99000;fill-opacity:1;stroke:none;stroke-width:1.96048844"><path xlink:href="#path43" style="fill:#b99000;fill-opacity:1;stroke-width:1.96048844" id="path4570" d="m 199.66602,461.14453 c -8.2066,0 -15.15946,2.73537 -20.39844,8.13672 -6.5e-4,6.6e-4 -0.001,0.001 -0.002,0.002 -6.5e-4,6.7e-4 -0.001,0.001 -0.002,0.002 -5.26746,5.40682 -7.90625,12.57706 -7.90625,21.08789 0,4.95344 0.97751,9.51704 2.95313,13.60547 a 1.9644316,1.9644316 0 0 0 0.006,0.008 c 1.39527,2.8479 3.52699,5.55462 5.98828,8.19922 h -7.59571 a 1.9644316,1.9644316 0 0 0 -1.96484,1.96484 v 6.81641 a 1.9644316,1.9644316 0 0 0 1.96484,1.96484 h 22.97461 a 1.9644316,1.9644316 0 0 0 1.96485,-1.96484 v -6.81641 a 1.9644316,1.9644316 0 0 0 -1.02539,-1.72461 c -4.26308,-2.32314 -7.52273,-5.41447 -9.89649,-9.35156 v -0.002 c -2.34714,-3.93624 -3.51367,-8.24714 -3.51367,-13.08204 0,-5.73932 1.53516,-10.07878 4.54297,-13.38281 3.0384,-3.33482 6.83927,-4.94726 11.91016,-4.94726 5.0742,0 8.86255,1.60317 11.87304,4.91015 3.00644,3.30253 4.54297,7.65357 4.54297,13.41992 0,4.83554 -1.1659,9.14733 -3.51367,13.08399 -2.3496,3.93974 -5.58464,7.03012 -9.82422,9.35351 a 1.9644316,1.9644316 0 0 0 -1.02148,1.72266 v 6.81641 a 1.9644316,1.9644316 0 0 0 1.96484,1.96484 h 22.97461 a 1.9644316,1.9644316 0 0 0 1.96484,-1.96484 v -6.81641 a 1.9644316,1.9644316 0 0 0 -1.96484,-1.96484 h -7.62109 c 2.50181,-2.67326 4.65353,-5.39849 6.02148,-8.25 1.9572,-4.07981 2.91211,-8.75339 2.91211,-13.94532 0,-8.29468 -2.65163,-15.34082 -7.91406,-20.71289 -5.28638,-5.39592 -12.23416,-8.13281 -20.39453,-8.13281 z"/><path id="path43" style="fill:#b99000;fill-opacity:1;stroke-width:1.96048844" d="m 226.66137,514.15128 v 6.81576 H 203.6869 v -6.81576 c 4.51831,-2.47614 8.04107,-5.83297 10.56826,-10.07048 2.52719,-4.23751 3.79078,-8.93452 3.79078,-14.09101 0,-6.12653 -1.68479,-11.04051 -5.05438,-14.74195 -3.36959,-3.70145 -7.81133,-5.55217 -13.3252,-5.55217 -5.51387,0 -9.96837,1.86349 -13.36348,5.59046 -3.36959,3.70144 -5.05439,8.60266 -5.05439,14.70366 0,5.15649 1.2636,9.8535 3.79079,14.09101 2.55272,4.23751 6.101,7.59434 10.64484,10.07048 v 6.81576 h -22.97447 v -6.81576 h 12.21476 c -4.0333,-3.54828 -6.98169,-7.2242 -8.84517,-11.02775 -1.83796,-3.80355 -2.75694,-8.05383 -2.75694,-12.75083 0,-8.11765 2.45061,-14.6909 7.35183,-19.71976 4.87569,-5.02885 11.20644,-7.54328 18.99223,-7.54328 7.73474,0 14.06549,2.51443 18.99224,7.54328 4.90122,5.00333 7.35183,11.44895 7.35183,19.33685 0,4.95227 -0.90622,9.31742 -2.71865,13.09545 -1.81243,3.77803 -4.77358,7.46671 -8.88346,11.06604 z"/></g><g id="text34" aria-label="ά" transform="matrix(0.13215581,0,0,0.13215581,20.621273,233.39113)" style="font-style:normal;font-weight:400;font-size:117.17852783px;line-height:73.2365799px;font-family:sans-serif;letter-spacing:0;word-spacing:0;fill:#b99000;fill-opacity:1;stroke:none;stroke-width:2.92946315"><path xlink:href="#path36" style="fill:#b99000;fill-opacity:1;stroke-width:2.92946315" id="path4572" d="m 34.695312,151.95508 c -8.259862,0 -15.603303,3.35402 -21.412109,9.69531 -6.06e-4,6.6e-4 -0.0013,0.001 -0.002,0.002 -5.4997371,5.97748 -7.9882812,14.96486 -7.9882812,26.57227 0,10.87798 2.3154706,19.7503 7.2363282,26.35351 a 2.7398288,2.7398288 0 0 0 0.0059,0.008 c 4.890576,6.52075 12.605565,9.79297 22.160156,9.79297 5.714986,0 9.803196,-0.50868 12.564454,-3.08008 2.230591,-2.06508 4.049714,-4.36815 5.640625,-6.79492 0.55371,1.00626 1.092992,2.02542 1.861328,2.8125 a 2.7398288,2.7398288 0 0 0 0.02344,0.0234 c 3.565907,3.56591 7.722205,5.60743 12.123047,5.60743 h 6.292969 a 2.7398288,2.7398288 0 0 0 2.740234,-2.74024 v -8.92578 a 2.7398288,2.7398288 0 0 0 -2.740234,-2.74023 h -5.035156 c 0.148752,0 -0.75621,-0.22155 -2.091797,-1.78516 -1.060369,-1.24214 -1.652278,-2.48033 -1.90625,-3.86133 v -0.002 l -2.16211,-11.83203 11.501953,-34.0586 a 2.7398288,2.7398288 0 0 0 -2.595703,-3.61718 h -9.382812 a 2.7398288,2.7398288 0 0 0 -2.595703,1.86328 l -3.019532,8.9375 c -1.342582,-2.76447 -3.062848,-5.14471 -5.24414,-7.01953 -4.103796,-3.52723 -9.576294,-5.21094 -15.97461,-5.21094 z m 0,14.40625 c 2.786846,0 4.658995,0.79707 6.28711,2.52734 1.628115,1.73028 2.984763,4.60985 3.78125,8.80469 l 2.382812,12.51172 -3.259765,9.67383 c -1.290485,3.81706 -2.829259,6.50703 -4.38086,8.11132 -1.551862,1.60457 -2.980751,2.21094 -4.810547,2.21094 -3.807532,0 -6.535499,-1.44675 -9.037109,-4.96875 a 2.7398288,2.7398288 0 0 0 -0.0059,-0.006 c -2.334965,-3.26894 -3.779297,-8.92153 -3.779297,-17.00195 0,-6.55623 1.369516,-12.16067 4.056641,-16.97656 a 2.7398288,2.7398288 0 0 0 0.0039,-0.006 c 1.91394,-3.45137 4.399763,-4.88086 8.761718,-4.88086 z"/><path id="path36" style="fill:#b99000;fill-opacity:1;stroke-width:2.92946315" d="m 49.971699,190.39813 -2.51751,-13.21691 c -1.71648,-9.04014 -5.96954,-13.56021 -12.75919,-13.56021 -5.1113,0 -8.83034,2.09792 -11.15713,6.29377 -2.93709,5.26388 -4.40564,11.36692 -4.40564,18.30914 0,8.39169 1.4304,14.5901 4.29121,18.59523 2.89895,4.08141 6.65613,6.12212 11.27156,6.12212 5.11131,0 9.04015,-4.06234 11.78652,-12.18703 z m 5.89325,-17.50812 5.66439,-16.76431 h 9.38344 l -11.72929,34.73016 2.28864,12.53032 c 0.34329,1.86906 1.18246,3.58554 2.51751,5.14945 1.56391,1.83091 2.95616,2.74637 4.17677,2.74637 h 5.03501 v 8.92571 h -6.29376 c -3.58555,0 -6.98037,-1.60205 -10.18447,-4.80615 -1.56391,-1.60205 -2.67008,-4.08142 -3.31853,-7.43809 -1.75463,4.23399 -4.42471,8.01025 -8.01025,11.32878 -1.67834,1.56391 -5.24481,2.34586 -10.69941,2.34586 -8.96385,0 -15.61998,-2.89895 -19.96841,-8.69684 -4.46285,-5.98862 -6.6942804,-14.22773 -6.6942804,-24.71735 0,-11.21435 2.4221504,-19.45347 7.2664404,-24.71734 5.37831,-5.87419 11.84373,-8.81128 19.39625,-8.81128 11.8628,0 18.91945,6.0649 21.16995,18.19471 z"/></g></g></g></svg>